<?xml version="1.0" encoding="UTF-8" standalone="no"?>
<!-- Created with Inkscape (http://www.inkscape.org/) -->

<svg
   xmlns:dc="http://purl.org/dc/elements/1.1/"
   xmlns:cc="http://creativecommons.org/ns#"
   xmlns:rdf="http://www.w3.org/1999/02/22-rdf-syntax-ns#"
   xmlns:svg="http://www.w3.org/2000/svg"
   xmlns="http://www.w3.org/2000/svg"
   xmlns:sodipodi="http://sodipodi.sourceforge.net/DTD/sodipodi-0.dtd"
   xmlns:inkscape="http://www.inkscape.org/namespaces/inkscape"
   width="21"
   height="17"
   id="svg3844"
   version="1.1"
   inkscape:version="0.91 r13725"
   sodipodi:docname="ca-transcanada_3.svg">
  <defs
     id="defs3846" />
  <sodipodi:namedview
     id="base"
     pagecolor="#ffffff"
     bordercolor="#666666"
     borderopacity="1.0"
     inkscape:pageopacity="0.0"
     inkscape:pageshadow="2"
     inkscape:zoom="22.627417"
     inkscape:cx="7.7868386"
     inkscape:cy="9.3001253"
     inkscape:document-units="px"
     inkscape:current-layer="layer1"
     showgrid="true"
     inkscape:snap-bbox="true"
     fit-margin-top="0"
     fit-margin-left="0"
     fit-margin-right="0"
     fit-margin-bottom="0"
     inkscape:window-width="1920"
     inkscape:window-height="1015"
     inkscape:window-x="0"
     inkscape:window-y="0"
     inkscape:window-maximized="1"
     inkscape:object-nodes="true"
     inkscape:bbox-nodes="true">
    <inkscape:grid
       type="xygrid"
       id="grid3875"
       empspacing="2"
       visible="true"
       enabled="true"
       snapvisiblegridlinesonly="true"
       originx="-299px"
       originy="-134px"
       spacingy="0.5px"
       spacingx="0.5px" />
  </sodipodi:namedview>
  <metadata
     id="metadata3849">
    <rdf:RDF>
      <cc:Work
         rdf:about="">
        <dc:format>image/svg+xml</dc:format>
        <dc:type
           rdf:resource="http://purl.org/dc/dcmitype/StillImage" />
        <dc:title></dc:title>
      </cc:Work>
    </rdf:RDF>
  </metadata>
  <g
     inkscape:label="Layer 1"
     inkscape:groupmode="layer"
     id="layer1"
     transform="translate(-299,-901.36218)">
    <g
       id="g4201"
       transform="matrix(0.40293476,0,0,0.32020698,155.21453,608.78432)">
      <path
         sodipodi:nodetypes="sssssssss"
         d="m 408.96315,918.16682 c 0,-2.45811 -1.97394,-4.452 -4.40745,-4.452 l -43.30272,0 c -2.43511,0 -4.40745,1.99389 -4.40745,4.452 l 0,44.18666 c 0,2.45811 1.97393,4.452 4.40745,4.452 l 43.30272,0 c 2.43351,0 4.40745,-1.99389 4.40745,-4.452 z"
         inkscape:connector-curvature="0"
         id="path9399"
         style="fill:#00674e" />
      <g
         transform="matrix(1.5957463,0,0,1.6118757,343.90159,884.99151)"
         id="g9405">
        <g
           transform="translate(70.9277,56.5649)"
           id="g9407">
          <path
             d="m -44.77,-35.495 c 0.546,0.802 0.743,1.834 1.843,2.236 0.691,-0.051 1.366,-0.47 2.006,-0.512 0.112,0 0.298,0.128 0.188,0.221 -0.81,1.255 0.529,2.56 0.614,3.644 0.111,0.828 0.085,1.579 0.06,2.441 0.068,0.222 0.306,0.461 0.554,0.555 1.119,0.145 2.039,-0.563 3.251,-0.35 -0.264,0.248 -0.554,0.675 -0.409,1.041 0.094,0.316 0.461,0.41 0.657,0.435 0.871,0.034 1.809,-0.853 2.765,-1.169 0.683,-0.205 1.519,-0.52 2.236,-0.308 l 0.137,0.146 c -0.939,0.922 -0.623,1.809 -0.837,2.799 -0.068,1.245 -1.485,2.918 -0.495,4.369 0.214,0.214 0.529,0.222 0.759,0.163 l 0.367,-0.163 c -0.111,1.204 -1.45,2.185 -2.56,2.842 -0.427,0.572 -1.067,1.024 -1.613,1.314 -0.734,0.298 -1.655,0.418 -2.279,1.084 -0.162,0.256 -0.111,0.614 0,0.863 l 0.41,0.221 c 0.887,0.145 1.655,0.239 2.423,0.759 l 0.342,0.453 -0.137,0.145 c -1.049,0.052 -2.202,1.05 -3.175,1.904 -1.007,0.546 -2.15,0.392 -3.303,0.588 -0.136,0.06 -0.281,0.171 -0.35,0.307 -1.014,-0.468 -2.491,-0.179 -3.029,-1.51 -0.145,-0.376 -0.546,-0.734 -0.878,-0.845 -0.376,-0.102 -0.828,0.026 -1.024,0.512 -0.316,0.512 -0.333,1.246 -0.163,1.843 0.256,0.905 0.811,1.502 0.41,2.441 -0.136,-0.034 -0.674,-0.128 -0.469,-0.47 0.085,-1.023 -0.768,-1.911 -0.512,-2.969 0,-0.427 0.179,-0.794 0,-1.187 -0.205,-0.264 -0.597,-0.349 -0.802,-0.29 -0.828,0.392 -1.178,1.374 -2.031,1.723 -0.699,0.324 -1.46,0.307 -2.006,0.836 -0.93,-0.52 -1.997,-0.375 -3.029,-0.631 -0.64,-0.205 -1.196,-0.955 -1.759,-1.356 -0.554,-0.257 -1.322,-0.23 -1.843,-0.487 -0.162,-0.111 -0.376,-0.299 -0.435,-0.452 l 0.819,-0.35 c 0.81,-0.853 1.706,-0.717 2.518,-1.348 l 0.17,-0.512 c -0.24,-0.683 -0.854,-0.759 -1.331,-1.007 -0.572,-0.06 -1.101,-0.444 -1.605,-0.614 -0.819,-1.075 -1.809,-1.561 -2.8,-2.295 -0.46,-0.487 -0.699,-1.016 -0.819,-1.614 l 0.06,-0.187 c 0.23,0.375 0.623,0.273 0.939,0.29 0.478,-0.171 0.632,-0.657 0.7,-1.05 -0.094,-1.143 -0.939,-1.902 -1.024,-3.132 -0.137,-0.896 -0.051,-1.613 -0.845,-2.21 0.487,-0.24 0.99,-0.308 1.536,-0.333 1.153,-0.078 2.305,0.657 3.303,0.887 0.393,0.034 0.785,-0.077 0.999,-0.538 0.068,-0.393 -0.068,-0.81 -0.342,-0.981 1.015,-0.393 2.014,0.614 2.902,0.819 0.281,0.017 0.555,-0.026 0.742,-0.367 0.419,-1.024 -0.717,-1.954 -0.29,-3.029 0.402,-1.186 1.409,-2.014 0.905,-3.448 l -0.333,-0.427 0.171,-0.102 c 1.101,-0.077 1.886,1.365 2.97,0.427 l 0.529,-0.573 c 0.665,-1.186 0.819,-2.286 1.843,-3.396 l 0.222,-0.128 c 0.965,0.154 1.674,1.298 2.177,2.032"
             inkscape:connector-curvature="0"
             id="path9409"
             style="fill:#ffffff" />
        </g>
      </g>
    </g>
  </g>
</svg>
